<svg width="314" height="350" viewBox="0 0 314 350" fill="none" xmlns="http://www.w3.org/2000/svg">
<path fill-rule="evenodd" clip-rule="evenodd" d="M38.5 28.5C60.4462 28.6606 77.6129 37.6606 90 55.5C130.231 140.215 170.064 225.048 209.5 310C182.224 321.141 158.724 315.641 139 293.5C97.4298 206.116 56.9298 120.116 17.5 35.5C17.7093 34.914 18.0426 34.414 18.5 34C25.0664 31.329 31.733 29.4957 38.5 28.5Z" fill="#FEFFFE"/>
<path fill-rule="evenodd" clip-rule="evenodd" d="M244.5 95.5C267.196 93.7257 283.363 103.059 293 123.5C298.449 142.482 294.782 159.482 282 174.5C261.137 197.026 237.803 213.359 212 223.5C219.409 217.76 225.742 211.094 231 203.5C235.893 197.044 239.727 190.044 242.5 182.5C227.407 179.349 217.073 171.016 211.5 157.5C209.77 153.277 208.103 149.11 206.5 145C207.221 140.381 207.887 135.714 208.5 131C212.426 111.995 224.426 100.162 244.5 95.5Z" fill="#FEFFFE"/>
<path fill-rule="evenodd" clip-rule="evenodd" d="M165.5 116.5C182.504 115.004 189.671 122.67 187 139.5C184.5 143.333 181.333 146.5 177.5 149C181.022 154.022 185.355 158.189 190.5 161.5C181.206 159.7 172.539 155.866 164.5 150C157.472 144.265 153.805 137.265 153.5 129C156.322 123.678 160.322 119.511 165.5 116.5Z" fill="#FEFFFE"/>
</svg>
